<svg xmlns="http://www.w3.org/2000/svg" viewBox="0 0 256 256" role="img" aria-labelledby="title desc"><title id="title">Iloilo Mission Hospital seal</title><desc id="desc">Green circular hospital seal with cross and Iloilo Mission Hospital name.</desc><rect width="256" height="256" fill="#fff"/><circle cx="128" cy="128" r="119" fill="#fff" stroke="#23810f" stroke-width="8"/><circle cx="128" cy="128" r="91" fill="none" stroke="#23810f" stroke-width="2.5" opacity=".65"/><path d="M112 66h32v46h46v32h-46v46h-32v-46H66v-32h46z" fill="none" stroke="#23810f" stroke-width="10" stroke-linejoin="round"/><path d="M128 56c26 0 50 11 67 28M61 84c17-17 41-28 67-28M61 172c17 17 41 28 67 28m67-28c-17 17-41 28-67 28" fill="none" stroke="#23810f" stroke-width="4" stroke-linecap="round" opacity=".75"/><text x="128" y="37" text-anchor="middle" font-family="Georgia,serif" font-size="18" font-weight="700" fill="#23810f">ILOILO MISSION HOSPITAL</text><text x="128" y="228" text-anchor="middle" font-family="Georgia,serif" font-size="17" font-weight="700" fill="#23810f">ILOILO CITY, PHILIPPINES</text><text x="35" y="139" text-anchor="middle" font-family="Georgia,serif" font-size="22" font-weight="700" fill="#23810f">*</text><text x="221" y="139" text-anchor="middle" font-family="Georgia,serif" font-size="22" font-weight="700" fill="#23810f">*</text></svg>
